<?xml version="1.0" encoding="UTF-8"?>
<svg width="310px" height="310px" viewBox="0 0 310 310" version="1.1" xmlns="http://www.w3.org/2000/svg" xmlns:xlink="http://www.w3.org/1999/xlink">
    <title>icon</title>
    <defs>
        <linearGradient x1="8.9922328%" y1="59.7401898%" x2="74.3902478%" y2="53.6613588%" id="linearGradient-1">
            <stop stop-color="#A609AB" offset="0%"></stop>
            <stop stop-color="#EB02F2" offset="100%"></stop>
        </linearGradient>
        <linearGradient x1="-1.48091736%" y1="51.6645593%" x2="96.9339355%" y2="45.3740059%" id="linearGradient-2">
            <stop stop-color="#A509A9" offset="0%"></stop>
            <stop stop-color="#DF01E7" offset="100%"></stop>
        </linearGradient>
    </defs>
    <g id="icon" stroke="none" fill="none" fill-rule="evenodd">
        <path d="M159.127811,233.978142 C164.620027,231.957374 167.477905,229.483054 172.307238,227.01734 C189.41238,218.287073 211.951273,200.573518 228.899078,193.799473 C228.899937,213.640514 228.588701,234.64169 229.055556,254.377735 C206.22692,267.973161 182.929708,282.319919 159.607563,294.910984 C150.327196,289.446824 84.4575694,252.88884 82.8386209,249.855967 L82.7148138,248.034007 L83.9331091,248.633006 C91.9590703,246.644943 128.264615,224.527527 136.054999,219.067669 L159.127811,233.978142 Z" id="Path" fill="#8F0993"></path>
        <path d="M165.742028,138.869548 C173.637303,134.016436 188.295538,124.557215 196.116874,120.702438 C196.490014,139.743951 196.851118,163.423418 196.235521,182.396941 C193.376784,184.564016 184.125649,191.305357 180.858519,192.147057 C170.969435,198.3221 161.00469,204.376657 150.967725,210.308142 C146.599229,212.879714 139.819076,216.317945 136.054999,219.067669 C128.264615,224.527527 91.9590703,246.644944 83.9331092,248.633006 L82.7148138,248.034007 C83.2616281,228.402098 82.6924599,205.794981 82.6666667,185.933285 C99.2533665,176.684917 115.753229,167.281637 132.164536,157.725164 C141.60654,152.199898 156.282829,142.971326 165.742028,138.869548 Z" id="Path" fill="url(#linearGradient-1)"></path>
        <path d="M127.011928,136.546571 L124.555259,137.933968 C105.735428,148.553343 87.4431066,158.670742 82.8601151,161.166837 C82.5643539,141.211331 82.7896139,120.625842 82.7810162,100.623861 C105.067137,86.3700514 132.098334,71.0929482 155.182322,57.7083781 C165.17028,51.1021563 176.644782,44.7360513 187.108195,38.736576 C200.937608,30.8078189 215.124688,21.3125369 229.043519,13.7777778 L228.932608,77.7619963 C209.911896,88.4071705 190.819825,99.7236387 171.689923,109.977225 C169.550194,112.223375 148.310205,124.50793 127.011928,136.546571 Z" id="Combined-Shape" fill="url(#linearGradient-2)"></path>
    </g>
</svg>