<?xml version="1.0" encoding="UTF-8"?>
<svg width="951px" height="186px" viewBox="0 0 951 186" version="1.1" xmlns="http://www.w3.org/2000/svg" xmlns:xlink="http://www.w3.org/1999/xlink" style="margin:auto">
    <title>logoElemenbet</title>
    <defs>
        <linearGradient x1="50%" y1="38.21266%" x2="50%" y2="100%" id="linearGradient-1">
            <stop stop-color="#F5F5F5" offset="0%"></stop>
            <stop stop-color="#7B7B7B" offset="100%"></stop>
        </linearGradient>
        <linearGradient x1="49.659556%" y1="99.0864674%" x2="49.659556%" y2="-5.92831332%" id="linearGradient-2">
            <stop stop-color="#8F0991" offset="0%"></stop>
            <stop stop-color="#F001F0" offset="100%"></stop>
        </linearGradient>
        <linearGradient x1="47.6707245%" y1="100%" x2="47.6707245%" y2="-1.11576742%" id="linearGradient-3">
            <stop stop-color="#8E0990" offset="0%"></stop>
            <stop stop-color="#F701F7" offset="100%"></stop>
        </linearGradient>
        <linearGradient x1="47.753394%" y1="107.049801%" x2="47.753394%" y2="-1.11546373%" id="linearGradient-4">
            <stop stop-color="#8A098F" offset="0%"></stop>
            <stop stop-color="#F300FB" offset="100%"></stop>
        </linearGradient>
        <linearGradient x1="50.2897825%" y1="99.8128559%" x2="50.2897825%" y2="12.5112049%" id="linearGradient-5">
            <stop stop-color="#860A89" offset="0%"></stop>
            <stop stop-color="#EB02F2" offset="100%"></stop>
        </linearGradient>
        <linearGradient x1="50%" y1="35.969375%" x2="50%" y2="100%" id="linearGradient-6">
            <stop stop-color="#F5F5F5" offset="0%"></stop>
            <stop stop-color="#888888" offset="100%"></stop>
        </linearGradient>
        <linearGradient x1="51.8804112%" y1="99.1137859%" x2="51.8804112%" y2="9.89272241%" id="linearGradient-7">
            <stop stop-color="#960898" offset="0%"></stop>
            <stop stop-color="#E901E9" offset="100%"></stop>
        </linearGradient>
        <linearGradient x1="9.18124523%" y1="59.7401898%" x2="74.2778286%" y2="53.6613588%" id="linearGradient-8">
            <stop stop-color="#A609AB" offset="0%"></stop>
            <stop stop-color="#EB02F2" offset="100%"></stop>
        </linearGradient>
        <linearGradient x1="49.8302595%" y1="98.4141411%" x2="47.6437227%" y2="39.7513355%" id="linearGradient-9">
            <stop stop-color="#868686" offset="0%"></stop>
            <stop stop-color="#F5F5F5" offset="100%"></stop>
        </linearGradient>
        <linearGradient x1="-1.24363222%" y1="51.6645593%" x2="96.7176082%" y2="45.3740059%" id="linearGradient-10">
            <stop stop-color="#A509A9" offset="0%"></stop>
            <stop stop-color="#DF01E7" offset="100%"></stop>
        </linearGradient>
    </defs>
    <g id="logoElemenbet" stroke="none" fill="none" transform="translate(0.3368, 0.3747)">
        <path d="M648.028442,50.8042482 C661.838042,50.9302579 675.647643,50.9585112 689.451611,50.8890081 C699.628588,50.8788369 711.21919,50.2668703 721.086409,52.2270847 C730.519965,54.1031042 739.142517,62.2982583 739.243893,72.2716755 C739.288949,73.788313 739.655027,76.8752693 739.159413,78.24838 C738.889078,86.1446141 737.531773,92.1981675 732.192661,98.1590502 C737.261438,102.664322 739.294581,105.687991 741.108076,112.450703 C746.250068,128.780549 735.385991,150.749755 718.737876,154.998487 C707.963909,157.748664 697.80946,157.362724 686.782055,157.300001 C669.503159,157.857157 650.495247,156.6061 633.447262,157.378546 C633.633117,155.306448 638.262599,118.27823 638.544198,117.626143 C639.281987,108.591866 642.655539,86.8888062 644.429611,77.769769 C645.05476,69.0558842 647.437085,59.2548122 648.028442,50.8042482 Z M665.183435,122.259121 C665.239755,123.689868 663.690962,134.119294 663.409363,136.192521 C676.588182,135.945022 723.311038,142.42181 713.021422,117.710903 C707.321864,113.516417 700.540968,114.330678 693.771335,114.321637 C684.675697,114.30977 675.619483,114.611516 666.518213,114.304685 C666.140871,116.633322 665.690313,120.044626 665.183435,122.259121 Z M671.609517,77.1092067 C671.299759,82.3377636 670.353587,88.0285446 669.593271,93.2520159 C684.349042,93.4486589 709.400063,98.5399047 712.514544,80.1447419 C709.997052,71.3986484 703.852568,71.9642796 695.810109,71.9812315 C687.998562,71.9981835 680.170118,72.1287138 672.352938,72.1298439 C672.229034,74.0126443 672.223402,75.3043854 671.609517,77.1092067 Z" id="Shape" fill="url(#linearGradient-1)" fill-rule="nonzero"></path>
        <path d="M385.928201,50.7839058 L414.712656,50.743221 C414.815722,55.4366603 415.052828,60.7850112 414.728426,65.4083823 C415.508454,73.5481599 415.065781,89.6836233 415.032553,98.3771657 L414.667601,157.511901 C405.724589,157.476302 395.878209,157.220327 387.014608,157.41923 C386.758354,140.246871 387.223555,123.029871 386.919428,105.911192 C386.831569,103.931766 386.780881,100.799604 386.494777,98.9365811 C384.604687,104.175309 369.475515,130.852081 365.583821,136.182915 L345.130744,136.341134 C338.993582,127.453774 329.572416,109.250733 323.390198,98.9309305 C323.609282,105.773881 323.975924,116.670052 323.446518,123.422027 C324.108275,132.961473 323.608719,147.657713 323.546204,157.433922 C314.36496,157.405669 305.184279,157.431662 296.003599,157.511901 C296.177627,145.924655 296.191143,134.336279 296.044149,122.749598 C295.859983,106.408451 295.870121,90.065608 296.075688,73.7244605 C296.209166,66.3102279 295.994587,58.2749875 295.929257,50.8155495 L324.589809,50.7392656 C329.338689,58.3331893 333.703469,66.1616155 337.668942,74.1951606 C341.939105,82.8333266 347.068143,91.0330012 351.425038,99.6287872 C352.699554,102.143897 353.970691,104.665787 355.589883,106.980298 C360.590513,97.4973577 365.405851,87.9415244 370.83451,78.6959124 C371.680433,77.2555588 372.435681,75.7835615 373.104196,74.2505371 C377.016165,66.3831214 381.717174,58.569952 385.928201,50.7839058 Z" id="Path" fill="url(#linearGradient-2)" fill-rule="evenodd"></path>
        <path d="M199.089154,50.9200867 C227.294642,50.5154994 256.137108,50.7788202 284.391031,50.7861661 C284.393284,57.288382 284.624758,65.9576266 284.27276,72.2807166 L226.6954,72.3208363 C226.921243,76.3164189 227.224806,88.724706 226.742709,92.5569845 C240.493737,92.612361 257.94835,93.1384376 271.449318,92.5360771 C272.710317,94.6409484 272.06433,110.689392 272.005194,114.191671 C257.694348,113.736228 241.234341,114.137425 226.819304,114.193367 C227.12681,120.950993 226.949966,129.140496 226.958977,136.01057 C243.781683,135.308193 266.96852,135.84331 284.134777,136.000399 C284.28684,143.179564 284.264312,150.361554 284.06663,157.53959 C255.976033,157.533939 227.143142,157.1593 199.138715,157.554281 L199.085774,91.091203 C198.863875,77.6567557 199.274446,64.2296544 199.089154,50.9200867 Z" id="Path" fill="url(#linearGradient-3)" fill-rule="evenodd"></path>
        <path d="M432.848739,50.8850526 C460.844155,50.4985474 489.555959,50.7963372 517.608821,50.7906866 C517.304694,56.9612087 517.636981,65.8135347 517.693301,72.1795697 C498.933195,72.5129588 479.570469,72.2886275 460.793467,72.2564187 L460.692092,92.5920186 C469.596243,92.4699644 479.069223,92.7287646 488.012798,92.8220006 L505.257902,92.5468133 C505.331118,99.8576389 505.314222,107.16903 505.212846,114.479855 C495.920089,113.409055 470.897229,114.120473 460.483709,114.166809 C460.894843,121.291727 460.725884,128.868699 460.697724,136.034868 C477.599278,135.886255 500.774851,135.294066 517.468022,135.994183 C517.546869,142.891945 517.817204,150.690423 517.496181,157.516422 C489.364471,157.300567 461.238393,157.312433 433.108373,157.552021 C432.303564,139.285693 432.386354,112.378939 432.809315,93.9142734 C431.827099,82.5705708 433.266631,63.3182027 432.848739,50.8850526 Z" id="Path" fill="url(#linearGradient-4)" fill-rule="evenodd"></path>
        <path d="M105.920535,50.8082036 L133.679408,50.7121424 C133.707568,64.8128026 134.038728,80.4996035 133.590423,94.466343 C134.12715,107.242488 133.673776,123.0666 133.690672,136.051255 C151.023072,135.825228 171.49586,135.527438 188.793342,135.960844 C188.883454,143.114016 188.878948,150.267753 188.780388,157.420926 C162.630007,157.49947 131.603462,156.703857 105.901949,157.599487 L105.857456,116.65423 C105.852388,111.776579 105.524607,100.972514 105.949258,96.6096388 C105.601765,93.4215357 105.780298,84.2968478 105.790999,80.8759375 L105.920535,50.8082036 Z" id="Path" fill="url(#linearGradient-5)" fill-rule="evenodd"></path>
        <path d="M850.2501,50.8652753 C857.718097,51.1636302 865.540909,51.092997 873.031435,50.9675523 C898.364053,50.5437527 923.938847,51.4376873 949.237674,50.9003094 C931.665916,74.5195086 940.553171,72.4852705 910.427742,72.070512 C910.275678,73.1673053 909.695585,78.2037398 909.278819,78.7993195 C908.878949,83.5272278 904.277626,118.187819 903.145599,120.787123 C902.740097,129.786367 900.053646,148.52848 898.335894,157.381936 C889.307839,157.2418 880.279785,157.206201 871.251731,157.275139 C872.64846,143.974047 874.799874,126.937868 876.973816,113.869584 C876.98508,110.011877 881.017574,82.5372319 881.975009,79.701165 L882.77475,72.2021724 L865.067823,72.1298439 C862.426428,68.3766747 851.815789,54.100844 850.2501,50.8652753 Z" id="Path" fill="url(#linearGradient-6)" fill-rule="evenodd"></path>
        <path d="M556.919999,94.8245949 C557.477565,101.02111 557.184702,111.470313 557.17907,118.061244 C557.224126,131.220504 557.162174,144.379199 556.998847,157.537329 C547.796201,157.472912 538.599188,157.511901 529.402174,157.653733 L529.199423,82.546273 L529.176895,50.8839225 C538.942738,50.783716 548.708581,50.7584778 558.480056,50.8093338 C566.353556,63.5758728 573.432947,77.2617745 581.041744,90.2153505 C581.754939,91.4323523 584.483775,95.7858101 584.919272,96.9873232 L584.955966,97.1001162 C586.109834,98.7710581 587.944497,101.972015 589.78792,105.280536 L590.340538,106.274897 C592.08707,109.424916 593.780857,112.543635 594.845712,114.411482 C594.766864,104.424503 594.800656,94.4363945 594.930192,84.4499808 C594.609169,73.5069101 594.828816,61.9174038 594.873872,50.9240422 C603.946982,50.8720561 613.465018,50.6629816 622.498704,50.7867311 L622.605712,78.213911 C622.616976,80.7397566 622.808463,89.2191389 622.54376,91.4206366 C623.292813,99.5830168 622.954894,112.853595 622.892942,121.361231 C622.814095,132.750138 623.123853,146.228661 622.481808,157.487038 L593.302551,157.549196 C583.553604,141.835837 574.362223,123.765022 564.618908,107.562316 C563.109539,104.653355 559.296692,96.7124809 556.919999,94.8245949 Z" id="Combined-Shape" fill="url(#linearGradient-7)" fill-rule="evenodd"></path>
        <path d="M50.086271,144.576972 C53.6839759,143.250197 55.5560441,141.625632 58.7195239,140.006718 C69.9243361,134.274687 84.6885559,122.644496 95.790303,118.19686 C95.7908662,131.223895 95.5869887,145.012638 95.8928049,157.970735 C80.9387876,166.897085 65.6778277,176.316737 50.4005351,184.583655 C44.3213824,180.99605 1.17314018,156.993171 0.112639479,155.001878 L0.0315390543,153.805633 L0.829589766,154.198919 C6.08703747,152.893616 29.869174,138.371981 34.9723056,134.787202 L50.086271,144.576972 Z" id="Path" fill="#8F0993" fill-rule="evenodd"></path>
        <path d="M54.4189485,82.1315144 C59.5907902,78.9451065 69.1927427,72.7344647 74.3161494,70.2035335 C74.5605771,82.7056216 74.79712,98.2528511 74.3938706,110.710299 C72.5212393,112.133136 66.4612353,116.559299 64.3210852,117.111933 C57.8431887,121.166283 51.3157309,125.141523 44.7409645,129.035959 C41.8793585,130.724376 37.4379838,132.981815 34.9723056,134.787202 C29.869174,138.371981 6.08703747,152.893616 0.829589766,154.198919 L0.0315390543,153.805633 C0.389732599,140.915909 0.0168959219,126.072752 0,113.032156 C10.8652042,106.959955 21.6735254,100.786043 32.4238374,94.5115483 C38.6088712,90.8838237 48.2226508,84.8246196 54.4189485,82.1315144 Z" id="Path" fill="url(#linearGradient-8)" fill-rule="evenodd"></path>
        <path d="M761.794317,50.82007 L845.54177,50.871491 C844.567438,57.9065644 843.610003,65.2077838 842.43292,72.2010423 L786.293403,72.104416 C786.061758,73.7853649 785.613691,77.7338675 785.171001,79.3889665 L785.110689,79.6000182 C784.981153,83.4447281 783.933606,89.7096163 783.376041,93.7018085 L835.331001,93.799565 C828.161498,97.5951142 814.926359,109.09534 807.238715,114.630163 C798.092389,114.804203 788.946063,114.872011 779.799737,114.834152 C779.652555,116.666322 779.510279,119.446538 779.153117,121.295313 L779.073213,121.676537 L777.158342,136.18461 C795.011699,136.125278 817.511435,135.480538 834.95929,136.429284 C833.984959,143.411806 833.050051,150.399414 832.148935,157.392107 C804.338248,156.873942 774.95624,157.343512 746.976593,157.284745 C748.159308,150.170562 749.173063,143.029821 750.023491,135.868173 C750.70496,129.707822 751.527228,120.050842 752.839478,114.210319 C753.1713,110.381961 753.963365,104.417798 754.88315,98.2361156 L755.075163,96.9546724 L755.31734,95.3627246 C756.334257,88.7318158 757.438418,82.1909768 758.223645,78.0833807 C758.52214,69.9820276 761.214223,59.2638532 761.794317,50.82007 Z" id="Combined-Shape" fill="url(#linearGradient-9)" fill-rule="evenodd"></path>
        <path d="M0.126719414,96.7712477 C-0.0670204903,83.6690594 0.0805372278,70.1532426 0.0749052539,57.0205407 C14.673545,47.6619154 32.3804712,37.6314265 47.5017581,28.8435181 C54.0444223,24.5060705 61.5608547,20.3262763 68.4149671,16.3872003 C77.4739972,11.1814156 86.7673175,4.94709746 95.8849201,0 L95.8122677,42.010124 C83.3526516,48.999427 70.8462902,56.4294815 58.3151481,63.1616794 C55.6196854,65.9977463 6.65305086,93.2085058 0.126719414,96.7712477 Z" id="Combined-Shape" fill="url(#linearGradient-10)" fill-rule="evenodd"></path>
    </g>
</svg>